<svg width="1440" height="729" viewBox="0 0 1440 729" fill="none" xmlns="http://www.w3.org/2000/svg">
<g clip-path="url(#clip0_179_26)">
<rect width="1440" height="729" fill="white"/>
<path d="M1226.84 366.531C1228.46 350.185 1216.51 335.628 1200.16 334.016C1183.82 332.405 1169.26 344.35 1167.65 360.696C1166.04 377.042 1177.98 391.599 1194.33 393.21C1210.68 394.822 1225.23 382.877 1226.84 366.531Z" fill="url(#paint0_radial_179_26)"/>
<path d="M1204.58 339.152L1204.92 346.542C1208.95 348.34 1212.21 351.506 1214.13 355.48L1221.37 355.125C1220.03 351.328 1217.8 347.903 1214.89 345.128C1211.97 342.352 1208.43 340.305 1204.58 339.152Z" fill="url(#paint1_linear_179_26)"/>
<path d="M1099.27 422.389L1122.17 394.576C1126.6 389.213 1116.08 380.53 1111.64 385.892L1088.71 413.693C1084.31 419.068 1094.84 427.752 1099.27 422.389Z" fill="url(#paint2_linear_179_26)"/>
<path d="M1142.37 304.198C1145.6 289.56 1136.35 275.076 1121.71 271.847C1107.07 268.618 1092.59 277.866 1089.36 292.504C1086.13 307.142 1095.38 321.627 1110.02 324.856C1124.66 328.085 1139.14 318.836 1142.37 304.198Z" fill="url(#paint3_radial_179_26)"/>
<path d="M1123.56 276.375V283.132C1127.15 284.946 1129.99 287.972 1131.57 291.676H1138.19C1137.13 288.153 1135.25 284.93 1132.71 282.271C1130.16 279.612 1127.03 277.592 1123.56 276.375Z" fill="url(#paint4_linear_179_26)"/>
<path d="M1106.93 428.266C1110.34 413.67 1101.27 399.071 1086.68 395.658C1072.08 392.245 1057.48 401.311 1054.07 415.908C1050.66 430.504 1059.72 445.103 1074.32 448.516C1088.91 451.929 1103.51 442.863 1106.93 428.266Z" fill="url(#paint5_radial_179_26)"/>
<path d="M1088.19 400.09V406.847C1091.78 408.667 1094.62 411.697 1096.2 415.404H1102.8C1101.75 411.88 1099.87 408.656 1097.33 405.995C1094.79 403.333 1091.66 401.31 1088.19 400.09Z" fill="url(#paint6_linear_179_26)"/>
<path d="M1092.08 339.418L1114.82 311.452C1119.21 306.052 1108.62 297.431 1104.24 302.832L1081.49 330.797C1077.1 336.198 1087.69 344.818 1092.08 339.418Z" fill="url(#paint7_linear_179_26)"/>
<path d="M1142.58 380.454L1178.42 376.65C1185.34 375.902 1183.87 362.325 1176.95 363.073L1141.11 366.876C1134.19 367.624 1135.66 381.201 1142.58 380.454Z" fill="url(#paint8_linear_179_26)"/>
<path d="M1220.26 415.924L1211.52 380.948C1209.84 374.204 1196.59 377.512 1198.27 384.269L1207.01 419.233C1208.7 425.99 1221.94 422.681 1220.26 415.924Z" fill="url(#paint9_linear_179_26)"/>
<path d="M1076.6 382.038C1096 382.038 1111.73 366.311 1111.73 346.91C1111.73 327.509 1096 311.782 1076.6 311.782C1057.2 311.782 1041.47 327.509 1041.47 346.91C1041.47 366.311 1057.2 382.038 1076.6 382.038Z" fill="url(#paint10_radial_179_26)"/>
<path d="M1086.55 318.463V327.197C1091.2 329.552 1094.87 333.47 1096.92 338.264H1105.48C1104.11 333.705 1101.68 329.535 1098.39 326.094C1095.1 322.652 1091.04 320.038 1086.55 318.463Z" fill="url(#paint11_linear_179_26)"/>
<path d="M1133.71 404.147C1148.11 404.147 1159.77 392.478 1159.77 378.083C1159.77 363.688 1148.11 352.019 1133.71 352.019C1119.32 352.019 1107.65 363.688 1107.65 378.083C1107.65 392.478 1119.32 404.147 1133.71 404.147Z" fill="url(#paint12_radial_179_26)"/>
<path d="M1141.09 356.976V363.466C1144.54 365.206 1147.27 368.112 1148.78 371.668H1155.12C1154.11 368.286 1152.31 365.192 1149.87 362.638C1147.43 360.085 1144.42 358.144 1141.09 356.976Z" fill="url(#paint13_linear_179_26)"/>
<path d="M1083.43 400.052V363.999C1083.43 357.039 1069.77 357.052 1069.78 363.999V400.04C1069.79 407.012 1083.45 407.012 1083.43 400.052Z" fill="url(#paint14_linear_179_26)"/>
<path d="M1079.41 430.211C1093.81 430.211 1105.48 418.542 1105.48 404.147C1105.48 389.752 1093.81 378.083 1079.41 378.083C1065.02 378.083 1053.35 389.752 1053.35 404.147C1053.35 418.542 1065.02 430.211 1079.41 430.211Z" fill="url(#paint15_radial_179_26)"/>
<path d="M1086.79 383.04V389.53C1090.25 391.27 1092.97 394.176 1094.49 397.732H1100.83C1099.81 394.352 1098.01 391.26 1095.57 388.707C1093.13 386.154 1090.12 384.212 1086.79 383.04Z" fill="url(#paint16_linear_179_26)"/>
<path d="M1093.36 440.784L1122.88 461.448C1128.59 465.441 1136.42 454.26 1130.72 450.266L1101.18 429.603C1095.48 425.609 1087.65 436.791 1093.36 440.784Z" fill="url(#paint17_linear_179_26)"/>
<path d="M1127.99 396.401L1121.11 431.783C1119.84 438.616 1133.19 441.228 1134.52 434.395L1141.39 399.013C1142.72 392.18 1129.32 389.568 1127.99 396.401Z" fill="url(#paint18_linear_179_26)"/>
<path d="M1141.16 466.212C1152.57 456.491 1153.94 439.36 1144.22 427.95C1134.5 416.54 1117.37 415.17 1105.96 424.892C1094.55 434.613 1093.18 451.743 1102.9 463.154C1112.62 474.564 1129.75 475.933 1141.16 466.212Z" fill="url(#paint19_radial_179_26)"/>
<path d="M1131.25 423.543V430.3C1134.84 432.118 1137.68 435.143 1139.26 438.844H1145.88C1144.82 435.322 1142.94 432.101 1140.4 429.442C1137.86 426.783 1134.72 424.762 1131.25 423.543Z" fill="url(#paint20_linear_179_26)"/>
<path d="M1225 452.775C1240.84 446.095 1248.27 427.835 1241.59 411.99C1234.91 396.146 1216.65 388.716 1200.81 395.396C1184.96 402.076 1177.53 420.336 1184.21 436.181C1190.89 452.026 1209.15 459.455 1225 452.775Z" fill="url(#paint21_radial_179_26)"/>
<path d="M1221.73 398.861V406.606C1225.85 408.693 1229.11 412.168 1230.92 416.419H1238.52C1237.31 412.374 1235.15 408.675 1232.23 405.623C1229.31 402.572 1225.71 400.254 1221.73 398.861Z" fill="url(#paint22_linear_179_26)"/>
<path style="mix-blend-mode:multiply" opacity="0.5" d="M1142.76 498.034C1209.46 498.034 1263.52 493.187 1263.52 487.207C1263.52 481.228 1209.46 476.381 1142.76 476.381C1076.07 476.381 1022 481.228 1022 487.207C1022 493.187 1076.07 498.034 1142.76 498.034Z" fill="url(#paint23_radial_179_26)"/>
<g clip-path="url(#clip1_179_26)">
<path d="M179.408 631.458L165.168 637.528C164.326 637.854 163.417 637.969 162.52 637.86C161.624 637.752 160.768 637.425 160.028 636.908C158.607 635.947 157.015 635.268 155.338 634.908C153.967 634.638 152.558 634.638 151.188 634.908C150.165 635.115 149.162 635.406 148.188 635.778C147.648 635.988 147.088 636.208 146.518 636.458L160.708 630.458C161.278 630.218 161.838 629.988 162.378 629.788C163.352 629.416 164.355 629.125 165.378 628.918C166.745 628.632 168.154 628.615 169.528 628.868C171.207 629.231 172.802 629.91 174.228 630.868C174.974 631.389 175.838 631.717 176.743 631.82C177.647 631.923 178.563 631.798 179.408 631.458Z" fill="#9276B7"/>
<mask id="mask0_179_26" style="mask-type:luminance" maskUnits="userSpaceOnUse" x="146" y="628" width="34" height="10">
<path d="M179.408 631.458L165.168 637.528C164.326 637.854 163.417 637.969 162.52 637.86C161.624 637.752 160.768 637.425 160.028 636.908C158.607 635.947 157.015 635.268 155.338 634.908C153.967 634.638 152.558 634.638 151.188 634.908C150.165 635.115 149.162 635.406 148.188 635.778C147.648 635.988 147.088 636.208 146.518 636.458L160.708 630.458C161.278 630.218 161.838 629.988 162.378 629.788C163.352 629.416 164.355 629.125 165.378 628.918C166.745 628.632 168.154 628.615 169.528 628.868C171.207 629.231 172.802 629.91 174.228 630.868C174.974 631.389 175.838 631.717 176.743 631.82C177.647 631.923 178.563 631.798 179.408 631.458Z" fill="white"/>
</mask>
<g mask="url(#mask0_179_26)">
<path d="M179.408 631.458L165.168 637.528C164.326 637.854 163.417 637.969 162.52 637.86C161.624 637.752 160.768 637.425 160.028 636.908C158.607 635.947 157.015 635.268 155.338 634.908C153.967 634.638 152.558 634.638 151.188 634.908C150.165 635.115 149.162 635.406 148.188 635.778C147.648 635.988 147.088 636.208 146.518 636.458L160.708 630.458C161.278 630.218 161.838 629.988 162.378 629.788C163.352 629.416 164.355 629.125 165.378 628.918C166.745 628.632 168.154 628.615 169.528 628.868C171.207 629.231 172.802 629.91 174.228 630.868C174.966 631.389 175.821 631.72 176.718 631.83C177.615 631.94 178.525 631.826 179.368 631.498" fill="#9276B7"/>
</g>
<mask id="mask1_179_26" style="mask-type:luminance" maskUnits="userSpaceOnUse" x="134" y="616" width="21" height="10">
<path d="M149.067 619.148L134.827 625.218C135.747 624.828 136.697 624.388 137.687 623.938C138.677 623.488 139.557 623.078 140.557 622.648L154.797 616.578C153.797 616.998 152.797 617.438 151.927 617.868C151.057 618.298 149.977 618.758 149.067 619.148Z" fill="white"/>
</mask>
<g mask="url(#mask1_179_26)">
<path d="M149.067 619.148L134.827 625.218C135.747 624.828 136.697 624.388 137.687 623.938C138.677 623.488 139.557 623.078 140.557 622.648L154.797 616.578C153.797 616.998 152.797 617.438 151.927 617.868C151.057 618.298 149.927 618.758 149.067 619.148Z" fill="#85797F"/>
</g>
<path d="M155.018 633.008L140.788 639.078C139.398 639.684 137.972 640.205 136.518 640.638C134.912 641.12 133.259 641.428 131.588 641.558C129.41 641.719 127.221 641.54 125.098 641.028C122.217 640.296 119.477 639.093 116.988 637.468C113.953 635.531 111.252 633.117 108.988 630.318C106.922 627.751 105.198 624.928 103.858 621.918C103.044 620.113 102.323 618.267 101.698 616.388C100.898 614.008 100.248 611.718 99.648 609.588C98.838 606.738 98.088 604.168 97.238 601.968C96.793 600.798 96.2719 599.659 95.678 598.558C95.0681 597.423 94.3335 596.36 93.488 595.388C92.3987 594.152 91.1355 593.08 89.738 592.208C88.3145 591.245 86.7187 590.566 85.038 590.208C83.6645 589.955 82.2549 589.972 80.888 590.258C79.8643 590.464 78.8606 590.758 77.888 591.138C77.328 591.338 76.758 591.578 76.168 591.828L90.398 585.758C90.988 585.498 91.568 585.268 92.128 585.058C93.1023 584.686 94.1057 584.395 95.128 584.188C96.4949 583.902 97.9045 583.885 99.278 584.138C100.954 584.5 102.546 585.179 103.968 586.138C105.369 587.014 106.635 588.088 107.728 589.328C108.568 590.3 109.302 591.36 109.918 592.488C110.512 593.593 111.033 594.735 111.478 595.908C112.328 598.108 113.078 600.678 113.878 603.528C114.488 605.658 115.128 607.938 115.938 610.328C116.561 612.206 117.278 614.052 118.088 615.858C119.436 618.864 121.159 621.686 123.218 624.258C125.501 627.061 128.223 629.475 131.278 631.408C133.767 633.031 136.507 634.23 139.388 634.958C141.509 635.478 143.7 635.66 145.878 635.498C147.549 635.367 149.202 635.059 150.808 634.578C152.241 634.137 153.646 633.613 155.018 633.008Z" fill="#A387C1"/>
<mask id="mask2_179_26" style="mask-type:luminance" maskUnits="userSpaceOnUse" x="76" y="583" width="80" height="59">
<path d="M155.018 633.008L140.788 639.078C139.398 639.684 137.972 640.205 136.518 640.638C134.912 641.12 133.259 641.428 131.588 641.558C129.41 641.719 127.221 641.54 125.098 641.028C122.217 640.296 119.477 639.093 116.988 637.468C113.953 635.531 111.252 633.117 108.988 630.318C106.922 627.751 105.198 624.928 103.858 621.918C103.044 620.113 102.323 618.267 101.698 616.388C100.898 614.008 100.248 611.718 99.648 609.588C98.838 606.738 98.088 604.168 97.238 601.968C96.793 600.798 96.2719 599.659 95.678 598.558C95.0681 597.423 94.3335 596.36 93.488 595.388C92.3987 594.152 91.1355 593.08 89.738 592.208C88.3145 591.245 86.7187 590.566 85.038 590.208C83.6645 589.955 82.2549 589.972 80.888 590.258C79.8643 590.464 78.8606 590.758 77.888 591.138C77.328 591.338 76.758 591.578 76.168 591.828L90.398 585.758C90.988 585.498 91.568 585.268 92.128 585.058C93.1023 584.686 94.1057 584.395 95.128 584.188C96.4949 583.902 97.9045 583.885 99.278 584.138C100.954 584.5 102.546 585.179 103.968 586.138C105.369 587.014 106.635 588.088 107.728 589.328C108.568 590.3 109.302 591.36 109.918 592.488C110.512 593.593 111.033 594.735 111.478 595.908C112.328 598.108 113.078 600.678 113.878 603.528C114.488 605.658 115.128 607.938 115.938 610.328C116.561 612.206 117.278 614.052 118.088 615.858C119.436 618.864 121.159 621.686 123.218 624.258C125.501 627.061 128.223 629.475 131.278 631.408C133.767 633.031 136.507 634.23 139.388 634.958C141.509 635.478 143.7 635.66 145.878 635.498C147.549 635.367 149.202 635.059 150.808 634.578C152.241 634.137 153.646 633.613 155.018 633.008Z" fill="white"/>
</mask>
<g mask="url(#mask2_179_26)">
<path d="M155.018 633.008L140.788 639.078C139.398 639.684 137.972 640.205 136.518 640.638C134.912 641.12 133.259 641.428 131.588 641.558C129.41 641.719 127.221 641.54 125.098 641.028C122.217 640.296 119.477 639.093 116.988 637.468C113.953 635.531 111.252 633.117 108.988 630.318C106.922 627.751 105.198 624.928 103.858 621.918C103.044 620.113 102.323 618.267 101.698 616.388C100.898 614.008 100.248 611.718 99.648 609.588C98.838 606.738 98.088 604.168 97.238 601.968C96.793 600.798 96.2719 599.659 95.678 598.558C95.0681 597.423 94.3335 596.36 93.488 595.388C92.3987 594.152 91.1355 593.08 89.738 592.208C88.3145 591.245 86.7187 590.566 85.038 590.208C83.6645 589.955 82.2549 589.972 80.888 590.258C79.8643 590.464 78.8606 590.758 77.888 591.138C77.328 591.338 76.758 591.578 76.168 591.828L90.398 585.758C90.988 585.498 91.568 585.268 92.128 585.058C93.1023 584.686 94.1057 584.395 95.128 584.188C96.4949 583.902 97.9045 583.885 99.278 584.138C100.954 584.5 102.546 585.179 103.968 586.138C105.369 587.014 106.635 588.088 107.728 589.328C108.568 590.3 109.302 591.36 109.918 592.488C110.512 593.593 111.033 594.735 111.478 595.908C112.328 598.108 113.078 600.678 113.878 603.528C114.488 605.658 115.128 607.938 115.938 610.328C116.561 612.206 117.278 614.052 118.088 615.858C119.436 618.864 121.159 621.686 123.218 624.258C125.501 627.061 128.223 629.475 131.278 631.408C133.767 633.031 136.507 634.23 139.388 634.958C141.509 635.478 143.7 635.66 145.878 635.498C147.549 635.367 149.202 635.059 150.808 634.578C152.257 634.142 153.68 633.621 155.068 633.018" fill="#A387C1"/>
</g>
<mask id="mask3_179_26" style="mask-type:luminance" maskUnits="userSpaceOnUse" x="64" y="571" width="21" height="10">
<path d="M78.7576 574.458L64.5176 580.458C65.4276 580.068 66.3676 579.638 67.3376 579.188C68.3076 578.738 69.2176 578.328 70.2176 577.898L84.4576 571.828C83.4576 572.248 82.4576 572.688 81.5776 573.108C80.6976 573.528 79.7076 574.038 78.7576 574.458Z" fill="white"/>
</mask>
<g mask="url(#mask3_179_26)">
<path d="M78.7576 574.458L64.5176 580.458C65.4276 580.068 66.3676 579.638 67.3376 579.188C68.3076 578.738 69.2176 578.328 70.2176 577.898L84.4576 571.828C83.4576 572.248 82.4576 572.688 81.5776 573.108C80.6976 573.528 79.6576 573.998 78.7576 574.378" fill="#85797F"/>
</g>
<path d="M84.7079 588.308L70.4679 594.378C69.0854 594.984 67.6659 595.501 66.2179 595.928C64.6157 596.41 62.9662 596.718 61.2979 596.848C59.1202 597.014 56.9299 596.835 54.8079 596.318C51.9271 595.586 49.1868 594.383 46.6979 592.758C43.6481 590.826 40.9299 588.415 38.6479 585.618C36.5842 583.046 34.86 580.22 33.5179 577.208C32.701 575.407 31.98 573.565 31.3579 571.688C30.5579 569.288 29.9079 567.008 29.2979 564.878C28.4979 562.038 27.7479 559.458 26.8979 557.258C26.4529 556.088 25.9318 554.949 25.3379 553.848C24.7279 552.719 23.997 551.659 23.1579 550.688C22.0655 549.448 20.799 548.374 19.3979 547.498C17.9751 546.534 16.379 545.855 14.6979 545.498C13.3272 545.233 11.9186 545.233 10.5479 545.498C9.52659 545.713 8.52356 546.007 7.54791 546.378C7.00791 546.578 6.44793 546.808 5.87793 547.048L20.1079 540.978C20.6879 540.728 21.2379 540.508 21.7879 540.308C22.7616 539.931 23.7651 539.637 24.7879 539.428C26.1587 539.165 27.5671 539.165 28.9379 539.428C30.6175 539.79 32.2127 540.468 33.6379 541.428C35.0333 542.303 36.2962 543.374 37.3879 544.608C38.2302 545.582 38.9645 546.645 39.5779 547.778C40.1718 548.879 40.6929 550.018 41.1379 551.188C41.9879 553.378 42.7379 555.958 43.5379 558.808C44.1479 560.938 44.7879 563.218 45.5979 565.608C46.219 567.487 46.9366 569.333 47.7479 571.138C49.0918 574.146 50.8159 576.969 52.8779 579.538C55.1581 582.343 57.8805 584.758 60.9379 586.688C63.4269 588.313 66.167 589.516 69.0479 590.248C71.1705 590.761 73.3602 590.94 75.5379 590.778C77.2061 590.648 78.8557 590.34 80.4579 589.858C81.9053 589.43 83.3247 588.912 84.7079 588.308Z" fill="#9276B7"/>
<mask id="mask4_179_26" style="mask-type:luminance" maskUnits="userSpaceOnUse" x="5" y="539" width="80" height="58">
<path d="M84.7079 588.308L70.4679 594.378C69.0854 594.984 67.6659 595.501 66.2179 595.928C64.6157 596.41 62.9662 596.718 61.2979 596.848C59.1202 597.014 56.9299 596.835 54.8079 596.318C51.9271 595.586 49.1868 594.383 46.6979 592.758C43.6481 590.826 40.9299 588.415 38.6479 585.618C36.5842 583.046 34.86 580.22 33.5179 577.208C32.701 575.407 31.98 573.565 31.3579 571.688C30.5579 569.288 29.9079 567.008 29.2979 564.878C28.4979 562.038 27.7479 559.458 26.8979 557.258C26.4529 556.088 25.9318 554.949 25.3379 553.848C24.7279 552.719 23.997 551.659 23.1579 550.688C22.0655 549.448 20.799 548.374 19.3979 547.498C17.9751 546.534 16.379 545.855 14.6979 545.498C13.3272 545.233 11.9186 545.233 10.5479 545.498C9.52659 545.713 8.52356 546.007 7.54791 546.378C7.00791 546.578 6.44793 546.808 5.87793 547.048L20.1079 540.978C20.6879 540.728 21.2379 540.508 21.7879 540.308C22.7616 539.931 23.7651 539.637 24.7879 539.428C26.1587 539.165 27.5671 539.165 28.9379 539.428C30.6175 539.79 32.2127 540.468 33.6379 541.428C35.0333 542.303 36.2962 543.374 37.3879 544.608C38.2302 545.582 38.9645 546.645 39.5779 547.778C40.1718 548.879 40.6929 550.018 41.1379 551.188C41.9879 553.378 42.7379 555.958 43.5379 558.808C44.1479 560.938 44.7879 563.218 45.5979 565.608C46.219 567.487 46.9366 569.333 47.7479 571.138C49.0918 574.146 50.8159 576.969 52.8779 579.538C55.1581 582.343 57.8805 584.758 60.9379 586.688C63.4269 588.313 66.167 589.516 69.0479 590.248C71.1705 590.761 73.3602 590.94 75.5379 590.778C77.2061 590.648 78.8557 590.34 80.4579 589.858C81.9053 589.43 83.3247 588.912 84.7079 588.308Z" fill="white"/>
</mask>
<g mask="url(#mask4_179_26)">
<path d="M84.7079 588.308L70.4679 594.378C69.0854 594.984 67.6659 595.501 66.2179 595.928C64.6157 596.41 62.9662 596.718 61.2979 596.848C59.1202 597.014 56.9299 596.835 54.8079 596.318C51.9271 595.586 49.1868 594.383 46.6979 592.758C43.6481 590.826 40.9299 588.415 38.6479 585.618C36.5842 583.046 34.86 580.22 33.5179 577.208C32.701 575.407 31.98 573.565 31.3579 571.688C30.5579 569.288 29.9079 567.008 29.2979 564.878C28.4979 562.038 27.7479 559.458 26.8979 557.258C26.4529 556.088 25.9318 554.949 25.3379 553.848C24.7279 552.719 23.997 551.659 23.1579 550.688C22.0655 549.448 20.799 548.374 19.3979 547.498C17.9751 546.534 16.379 545.855 14.6979 545.498C13.3272 545.233 11.9186 545.233 10.5479 545.498C9.52659 545.713 8.52356 546.007 7.54791 546.378C7.00791 546.578 6.44793 546.808 5.87793 547.048L20.1079 540.978C20.6879 540.728 21.2379 540.508 21.7879 540.308C22.7616 539.931 23.7651 539.637 24.7879 539.428C26.1587 539.165 27.5671 539.165 28.9379 539.428C30.6175 539.79 32.2127 540.468 33.6379 541.428C35.0333 542.303 36.2962 543.374 37.3879 544.608C38.2302 545.582 38.9645 546.645 39.5779 547.778C40.1718 548.879 40.6929 550.018 41.1379 551.188C41.9879 553.378 42.7379 555.958 43.5379 558.808C44.1479 560.938 44.7879 563.218 45.5979 565.608C46.219 567.487 46.9366 569.333 47.7479 571.138C49.0918 574.146 50.8159 576.969 52.8779 579.538C55.1581 582.343 57.8805 584.758 60.9379 586.688C63.4269 588.313 66.167 589.516 69.0479 590.248C71.1705 590.761 73.3602 590.94 75.5379 590.778C77.2061 590.648 78.8557 590.34 80.4579 589.858C81.9053 589.43 83.3247 588.912 84.7079 588.308Z" fill="#9276B7"/>
</g>
<mask id="mask5_179_26" style="mask-type:luminance" maskUnits="userSpaceOnUse" x="-6" y="527" width="21" height="9">
<path d="M8.38745 529.728L-5.85254 535.798C-4.94254 535.408 -3.99255 534.978 -2.99255 534.518C-1.99255 534.058 -1.12253 533.658 -0.122528 533.228L14.1175 527.158C13.1175 527.588 12.1175 528.028 11.2375 528.448C10.3575 528.868 9.29745 529.338 8.38745 529.728Z" fill="white"/>
</mask>
<g mask="url(#mask5_179_26)">
<path d="M8.38745 529.728L-5.85254 535.798C-4.94254 535.408 -3.99255 534.978 -2.99255 534.518C-1.99255 534.058 -1.12253 533.658 -0.122528 533.228L14.1175 527.158C13.1175 527.588 12.1175 528.028 11.2375 528.448C10.3575 528.868 9.29745 529.338 8.38745 529.728Z" fill="#85797F"/>
</g>
<path d="M14.3376 543.588L0.09758 549.668C-1.29056 550.271 -2.71304 550.792 -4.16243 551.228C-5.76964 551.702 -7.42191 552.007 -9.09242 552.138C-11.2702 552.304 -13.4605 552.125 -15.5824 551.608C-18.463 550.875 -21.203 549.672 -23.6924 548.048C-26.7463 546.121 -29.4653 543.71 -31.7424 540.908C-33.8038 538.338 -35.5278 535.515 -36.8724 532.508C-37.6878 530.703 -38.4088 528.857 -39.0324 526.978C-39.8324 524.588 -40.4824 522.308 -41.0824 520.168C-41.8924 517.328 -42.6424 514.748 -43.4924 512.548C-43.9352 511.377 -44.4564 510.238 -45.0524 509.138C-45.6625 508.009 -46.3934 506.949 -47.2324 505.978C-48.3252 504.738 -49.5917 503.664 -50.9924 502.788C-52.5853 501.726 -53.798 500.184 -54.4544 498.385C-55.1108 496.587 -55.1767 494.626 -54.6424 492.788C-54.4206 492.077 -54.05 491.421 -53.5551 490.864C-53.0603 490.307 -52.4526 489.862 -51.7724 489.558L-37.5424 483.458C-38.22 483.764 -38.8252 484.21 -39.3181 484.767C-39.811 485.323 -40.1805 485.978 -40.4024 486.688C-40.9377 488.525 -40.8733 490.485 -40.2188 492.283C-39.5642 494.082 -38.3535 495.624 -36.7624 496.688C-35.3602 497.558 -34.0934 498.629 -33.0024 499.868C-32.1591 500.841 -31.4248 501.904 -30.8124 503.038C-30.2318 504.143 -29.724 505.286 -29.2924 506.458C-28.4424 508.658 -27.6924 511.228 -26.8924 514.078C-26.2824 516.208 -25.6424 518.488 -24.8324 520.888C-24.2096 522.763 -23.492 524.605 -22.6824 526.408C-21.3366 529.42 -19.6091 532.246 -17.5424 534.818C-15.2786 537.614 -12.577 540.025 -9.54243 541.958C-7.04947 543.582 -4.30613 544.785 -1.42244 545.518C0.699412 546.036 2.8898 546.214 5.06755 546.048C6.73478 545.917 8.38375 545.612 9.98756 545.138C11.4671 544.708 12.9197 544.19 14.3376 543.588Z" fill="#A387C1"/>
<mask id="mask6_179_26" style="mask-type:luminance" maskUnits="userSpaceOnUse" x="-55" y="483" width="70" height="70">
<path d="M14.3376 543.588L0.09758 549.668C-1.29056 550.271 -2.71304 550.792 -4.16243 551.228C-5.76964 551.702 -7.42191 552.007 -9.09242 552.138C-11.2702 552.304 -13.4605 552.125 -15.5824 551.608C-18.463 550.875 -21.203 549.672 -23.6924 548.048C-26.7463 546.122 -29.4653 543.71 -31.7424 540.908C-33.8038 538.338 -35.5278 535.515 -36.8724 532.508C-37.6878 530.703 -38.4088 528.857 -39.0324 526.978C-39.8324 524.588 -40.4824 522.308 -41.0824 520.168C-41.8924 517.328 -42.6424 514.748 -43.4924 512.548C-43.9352 511.377 -44.4564 510.238 -45.0524 509.138C-45.6625 508.009 -46.3934 506.949 -47.2324 505.978C-48.3252 504.739 -49.5917 503.664 -50.9924 502.788C-52.5853 501.726 -53.798 500.184 -54.4544 498.385C-55.1108 496.587 -55.1767 494.626 -54.6424 492.788C-54.4206 492.077 -54.05 491.421 -53.5551 490.864C-53.0603 490.307 -52.4526 489.862 -51.7724 489.558L-37.5424 483.458C-38.22 483.764 -38.8252 484.21 -39.3181 484.767C-39.811 485.323 -40.1805 485.978 -40.4024 486.688C-40.9377 488.525 -40.8733 490.485 -40.2188 492.283C-39.5642 494.082 -38.3535 495.625 -36.7624 496.688C-35.3602 497.558 -34.0934 498.63 -33.0024 499.868C-32.1591 500.842 -31.4248 501.905 -30.8124 503.038C-30.2318 504.143 -29.724 505.286 -29.2924 506.458C-28.4424 508.658 -27.6924 511.228 -26.8924 514.078C-26.2824 516.208 -25.6424 518.488 -24.8324 520.888C-24.2096 522.763 -23.492 524.605 -22.6824 526.408C-21.3366 529.42 -19.6091 532.246 -17.5424 534.818C-15.2786 537.614 -12.577 540.025 -9.54243 541.958C-7.04947 543.582 -4.30613 544.785 -1.42244 545.518C0.699412 546.036 2.8898 546.214 5.06755 546.048C6.73478 545.917 8.38375 545.612 9.98756 545.138C11.4671 544.708 12.9197 544.191 14.3376 543.588Z" fill="white"/>
</mask>
<g mask="url(#mask6_179_26)">
<path d="M14.3376 543.588L0.09758 549.668C-1.29056 550.271 -2.71304 550.792 -4.16243 551.228C-5.76964 551.702 -7.42191 552.007 -9.09242 552.138C-11.2702 552.304 -13.4605 552.125 -15.5824 551.608C-18.463 550.875 -21.203 549.672 -23.6924 548.048C-26.7463 546.122 -29.4653 543.71 -31.7424 540.908C-33.8038 538.338 -35.5278 535.515 -36.8724 532.508C-37.6878 530.703 -38.4088 528.857 -39.0324 526.978C-39.8324 524.588 -40.4824 522.308 -41.0824 520.168C-41.8924 517.328 -42.6424 514.748 -43.4924 512.548C-43.9352 511.377 -44.4564 510.238 -45.0524 509.138C-45.6625 508.009 -46.3934 506.949 -47.2324 505.978C-48.3252 504.739 -49.5917 503.664 -50.9924 502.788C-52.5853 501.726 -53.798 500.184 -54.4544 498.385C-55.1108 496.587 -55.1767 494.626 -54.6424 492.788C-54.4206 492.077 -54.05 491.421 -53.5551 490.864C-53.0603 490.307 -52.4526 489.862 -51.7724 489.558L-37.5424 483.458C-38.22 483.764 -38.8252 484.21 -39.3181 484.767C-39.811 485.323 -40.1805 485.978 -40.4024 486.688C-40.9377 488.525 -40.8733 490.485 -40.2188 492.283C-39.5642 494.082 -38.3535 495.625 -36.7624 496.688C-35.3602 497.558 -34.0934 498.63 -33.0024 499.868C-32.1591 500.842 -31.4248 501.905 -30.8124 503.038C-30.2318 504.143 -29.724 505.286 -29.2924 506.458C-28.4424 508.658 -27.6924 511.228 -26.8924 514.078C-26.2824 516.208 -25.6424 518.488 -24.8324 520.888C-24.2096 522.763 -23.492 524.605 -22.6824 526.408C-21.3366 529.42 -19.6091 532.246 -17.5424 534.818C-15.2786 537.614 -12.577 540.025 -9.54243 541.958C-7.04947 543.582 -4.30613 544.785 -1.42244 545.518C0.699412 546.036 2.8898 546.214 5.06755 546.048C6.73478 545.917 8.38375 545.612 9.98756 545.138C11.4404 544.699 12.8662 544.174 14.2576 543.568" fill="#A387C1"/>
</g>
<path d="M108.288 573.458C111.318 575.389 114.019 577.792 116.288 580.578C118.352 583.149 120.076 585.976 121.418 588.988C122.233 590.789 122.954 592.632 123.578 594.508C124.378 596.908 125.028 599.188 125.578 601.318C126.388 604.168 127.138 606.738 127.988 608.938C128.433 610.107 128.954 611.246 129.548 612.348C130.934 614.951 132.983 617.142 135.488 618.698C136.91 619.664 138.506 620.343 140.188 620.698C141.558 620.973 142.968 620.973 144.338 620.698C145.358 620.482 146.361 620.191 147.338 619.828C148.748 619.308 150.238 618.618 151.848 617.888C154.153 616.758 156.54 615.802 158.988 615.028C160.592 614.554 162.241 614.249 163.908 614.118C166.086 613.956 168.275 614.135 170.398 614.648C173.294 615.383 176.047 616.593 178.548 618.228C180.139 619.291 181.35 620.834 182.004 622.632C182.659 624.43 182.723 626.39 182.188 628.228C180.988 631.718 177.398 632.888 174.188 630.838C172.762 629.88 171.167 629.201 169.488 628.838C168.115 628.585 166.705 628.602 165.338 628.888C164.316 629.095 163.312 629.386 162.338 629.758C160.928 630.278 159.438 630.958 157.838 631.698C155.532 632.823 153.145 633.775 150.698 634.548C149.092 635.029 147.439 635.337 145.768 635.468C143.59 635.63 141.399 635.448 139.278 634.928C136.397 634.2 133.657 633.001 131.168 631.378C128.113 629.445 125.391 627.031 123.108 624.228C121.049 621.656 119.326 618.834 117.978 615.828C117.168 614.022 116.451 612.176 115.828 610.298C115.018 607.908 114.378 605.628 113.768 603.498C112.968 600.648 112.218 598.078 111.368 595.878C110.923 594.705 110.402 593.563 109.808 592.458C109.192 591.33 108.458 590.27 107.618 589.298C106.525 588.058 105.259 586.984 103.858 586.108C102.436 585.149 100.844 584.47 99.168 584.108C97.7946 583.855 96.3849 583.872 95.018 584.158C93.9957 584.365 92.9923 584.656 92.018 585.028C90.608 585.548 89.118 586.228 87.508 586.968C85.2022 588.094 82.8156 589.047 80.368 589.818C78.7657 590.3 77.1162 590.608 75.448 590.738C73.2702 590.9 71.0806 590.721 68.958 590.208C66.0771 589.476 63.3369 588.273 60.848 586.648C57.7906 584.718 55.0682 582.303 52.788 579.498C50.7259 576.929 49.0019 574.106 47.658 571.098C46.8467 569.293 46.129 567.447 45.508 565.568C44.698 563.178 44.058 560.898 43.448 558.768C42.648 555.918 41.898 553.338 41.048 551.148C40.603 549.978 40.0819 548.839 39.488 547.738C38.8746 546.605 38.1403 545.542 37.298 544.568C36.2062 543.334 34.9434 542.263 33.548 541.388C32.1227 540.428 30.5276 539.75 28.848 539.388C27.4772 539.124 26.0688 539.124 24.698 539.388C23.6752 539.597 22.6717 539.891 21.698 540.268C20.288 540.788 18.798 541.468 17.188 542.208C14.8804 543.33 12.4941 544.283 10.048 545.058C8.44416 545.532 6.79522 545.837 5.12799 545.968C2.95024 546.134 0.759822 545.956 -1.36203 545.438C-4.24572 544.705 -6.98906 543.502 -9.48203 541.878C-12.5166 539.945 -15.2182 537.534 -17.482 534.738C-19.5487 532.166 -21.2762 529.34 -22.622 526.328C-23.4316 524.525 -24.1492 522.683 -24.772 520.808C-25.582 518.408 -26.222 516.128 -26.832 513.998C-27.632 511.148 -28.382 508.578 -29.232 506.378C-29.677 505.208 -30.1981 504.069 -30.792 502.968C-31.4044 501.835 -32.1387 500.772 -32.982 499.798C-34.073 498.559 -35.3398 497.488 -36.742 496.618C-38.3331 495.554 -39.5438 494.012 -40.1984 492.213C-40.8529 490.415 -40.9173 488.455 -40.382 486.618C-39.182 483.138 -35.592 481.958 -32.382 484.008C-29.3455 485.93 -26.6432 488.335 -24.382 491.128C-22.3183 493.699 -20.5941 496.526 -19.252 499.538C-18.4351 501.338 -17.7141 503.181 -17.092 505.058C-16.292 507.448 -15.642 509.738 -15.042 511.868C-14.232 514.718 -13.482 517.288 -12.632 519.488C-12.1893 520.658 -11.6681 521.797 -11.072 522.898C-10.4621 524.029 -9.72749 525.089 -8.88202 526.058C-7.79576 527.3 -6.53215 528.375 -5.13202 529.248C-3.70596 530.206 -2.11111 530.884 -0.432037 531.248C0.941411 531.501 2.35103 531.484 3.71799 531.198C4.74026 530.991 5.74368 530.7 6.71799 530.328C8.12799 529.808 9.61799 529.128 11.218 528.388C13.5298 527.267 15.9193 526.315 18.368 525.538C19.9702 525.056 21.6197 524.747 23.288 524.618C25.4662 524.455 27.6565 524.637 29.778 525.158C32.6717 525.894 35.4249 527.1 37.928 528.728C40.9622 530.657 43.6638 533.065 45.928 535.858C47.9915 538.426 49.7157 541.249 51.058 544.258C51.8751 546.062 52.5961 547.908 53.218 549.788C54.028 552.178 54.658 554.458 55.218 556.598C56.028 559.438 56.778 562.018 57.628 564.208C58.073 565.377 58.5941 566.516 59.188 567.618C59.7955 568.754 60.5302 569.818 61.378 570.788C62.4696 572.024 63.7324 573.099 65.128 573.978C66.5531 574.937 68.1483 575.616 69.828 575.978C71.2014 576.231 72.611 576.214 73.978 575.928C75.0002 575.721 76.0037 575.43 76.978 575.058C78.378 574.538 79.878 573.848 81.478 573.108C83.7901 571.991 86.1796 571.042 88.628 570.268C90.2303 569.786 91.8797 569.477 93.548 569.348C95.7257 569.187 97.9152 569.366 100.038 569.878C102.968 570.603 105.757 571.813 108.288 573.458Z" fill="#BD9CE8"/>
<g style="mix-blend-mode:overlay" opacity="0.49">
<path d="M108.288 573.458C111.318 575.389 114.019 577.792 116.288 580.578C118.352 583.149 120.076 585.976 121.418 588.988C122.233 590.789 122.954 592.632 123.578 594.508C124.378 596.908 125.028 599.188 125.578 601.318C126.388 604.168 127.138 606.738 127.988 608.938C128.433 610.107 128.954 611.246 129.548 612.348C130.934 614.951 132.983 617.142 135.488 618.698C136.91 619.664 138.506 620.343 140.188 620.698C141.558 620.973 142.968 620.973 144.338 620.698C145.358 620.482 146.361 620.191 147.338 619.828C148.748 619.308 150.238 618.618 151.848 617.888C154.153 616.758 156.54 615.802 158.988 615.028C160.592 614.554 162.241 614.249 163.908 614.118C166.086 613.956 168.275 614.135 170.398 614.648C173.294 615.383 176.047 616.593 178.548 618.228C180.139 619.291 181.35 620.834 182.004 622.632C182.659 624.43 182.723 626.39 182.188 628.228C180.988 631.718 177.398 632.888 174.188 630.838C172.762 629.88 171.167 629.201 169.488 628.838C168.115 628.585 166.705 628.602 165.338 628.888C164.316 629.095 163.312 629.386 162.338 629.758C160.928 630.278 159.438 630.958 157.838 631.698C155.532 632.823 153.145 633.775 150.698 634.548C149.092 635.029 147.439 635.337 145.768 635.468C143.59 635.63 141.399 635.448 139.278 634.928C136.397 634.2 133.657 633.001 131.168 631.378C128.113 629.445 125.391 627.031 123.108 624.228C121.049 621.656 119.326 618.834 117.978 615.828C117.168 614.022 116.451 612.176 115.828 610.298C115.018 607.908 114.378 605.628 113.768 603.498C112.968 600.648 112.218 598.078 111.368 595.878C110.923 594.705 110.402 593.563 109.808 592.458C109.192 591.33 108.458 590.27 107.618 589.298C106.525 588.058 105.259 586.984 103.858 586.108C102.436 585.149 100.844 584.47 99.168 584.108C97.7946 583.855 96.3849 583.872 95.018 584.158C93.9957 584.365 92.9923 584.656 92.018 585.028C90.608 585.548 89.118 586.228 87.508 586.968C85.2022 588.094 82.8156 589.047 80.368 589.818C78.7657 590.3 77.1162 590.608 75.448 590.738C73.2702 590.9 71.0806 590.721 68.958 590.208C66.0771 589.476 63.3369 588.273 60.848 586.648C57.7906 584.718 55.0682 582.303 52.788 579.498C50.7259 576.929 49.0019 574.106 47.658 571.098C46.8467 569.293 46.129 567.447 45.508 565.568C44.698 563.178 44.058 560.898 43.448 558.768C42.648 555.918 41.898 553.338 41.048 551.148C40.603 549.978 40.0819 548.839 39.488 547.738C38.8746 546.605 38.1403 545.542 37.298 544.568C36.2062 543.334 34.9434 542.263 33.548 541.388C32.1227 540.428 30.5276 539.75 28.848 539.388C27.4772 539.124 26.0688 539.124 24.698 539.388C23.6752 539.597 22.6717 539.891 21.698 540.268C20.288 540.788 18.798 541.468 17.188 542.208C14.8804 543.33 12.4941 544.283 10.048 545.058C8.44416 545.532 6.79522 545.837 5.12799 545.968C2.95024 546.134 0.759822 545.956 -1.36203 545.438C-4.24572 544.705 -6.98906 543.502 -9.48203 541.878C-12.5166 539.945 -15.2182 537.534 -17.482 534.738C-19.5487 532.166 -21.2762 529.34 -22.622 526.328C-23.4316 524.525 -24.1492 522.683 -24.772 520.808C-25.582 518.408 -26.222 516.128 -26.832 513.998C-27.632 511.148 -28.382 508.578 -29.232 506.378C-29.677 505.208 -30.1981 504.069 -30.792 502.968C-31.4044 501.835 -32.1387 500.772 -32.982 499.798C-34.073 498.559 -35.3398 497.488 -36.742 496.618C-38.3331 495.554 -39.5438 494.012 -40.1984 492.213C-40.8529 490.415 -40.9173 488.455 -40.382 486.618C-39.182 483.138 -35.592 481.958 -32.382 484.008C-29.3455 485.93 -26.6432 488.335 -24.382 491.128C-22.3183 493.699 -20.5941 496.526 -19.252 499.538C-18.4351 501.338 -17.7141 503.181 -17.092 505.058C-16.292 507.448 -15.642 509.738 -15.042 511.868C-14.232 514.718 -13.482 517.288 -12.632 519.488C-12.1893 520.658 -11.6681 521.797 -11.072 522.898C-10.4621 524.029 -9.72749 525.089 -8.88202 526.058C-7.79576 527.3 -6.53215 528.375 -5.13202 529.248C-3.70596 530.206 -2.11111 530.884 -0.432037 531.248C0.941411 531.501 2.35103 531.484 3.71799 531.198C4.74026 530.991 5.74368 530.7 6.71799 530.328C8.12799 529.808 9.61799 529.128 11.218 528.388C13.5298 527.267 15.9193 526.315 18.368 525.538C19.9702 525.056 21.6197 524.747 23.288 524.618C25.4662 524.455 27.6565 524.637 29.778 525.158C32.6717 525.894 35.4249 527.1 37.928 528.728C40.9622 530.657 43.6638 533.065 45.928 535.858C47.9915 538.426 49.7157 541.249 51.058 544.258C51.8751 546.062 52.5961 547.908 53.218 549.788C54.028 552.178 54.658 554.458 55.218 556.598C56.028 559.438 56.778 562.018 57.628 564.208C58.073 565.377 58.5941 566.516 59.188 567.618C59.7955 568.754 60.5302 569.818 61.378 570.788C62.4696 572.024 63.7324 573.099 65.128 573.978C66.5531 574.937 68.1483 575.616 69.828 575.978C71.2014 576.231 72.611 576.214 73.978 575.928C75.0002 575.721 76.0037 575.43 76.978 575.058C78.378 574.538 79.878 573.848 81.478 573.108C83.7901 571.991 86.1796 571.042 88.628 570.268C90.2303 569.786 91.8797 569.477 93.548 569.348C95.7257 569.187 97.9152 569.366 100.038 569.878C102.968 570.603 105.757 571.813 108.288 573.458Z" fill="url(#paint24_linear_179_26)"/>
</g>
<path style="mix-blend-mode:overlay" opacity="0.62" d="M182.267 628.228C181.067 631.718 177.477 632.888 174.267 630.838C172.841 629.88 171.246 629.201 169.567 628.838C168.194 628.585 166.784 628.602 165.417 628.888C164.395 629.095 163.391 629.386 162.417 629.758C161.007 630.278 159.517 630.958 157.917 631.698C155.611 632.823 153.224 633.775 150.777 634.548C149.171 635.029 147.519 635.337 145.847 635.468C143.669 635.63 141.479 635.448 139.357 634.928C136.476 634.2 133.736 633.001 131.247 631.378C128.192 629.445 125.47 627.031 123.187 624.228C121.128 621.656 119.405 618.834 118.057 615.828C117.247 614.022 116.53 612.176 115.907 610.298C115.097 607.908 114.457 605.628 113.847 603.498C113.047 600.648 112.297 598.078 111.447 595.878C111.002 594.705 110.481 593.563 109.887 592.458C109.271 591.33 108.537 590.27 107.697 589.298C106.604 588.058 105.338 586.984 103.937 586.108C102.515 585.149 100.923 584.47 99.2471 584.108C97.8736 583.855 96.4641 583.872 95.0971 584.158C94.0748 584.365 93.0714 584.656 92.0971 585.028C90.6871 585.548 89.1971 586.228 87.5871 586.968C85.2814 588.094 82.8947 589.047 80.4471 589.818C78.8448 590.3 77.1953 590.608 75.5271 590.738C73.3494 590.9 71.1597 590.721 69.0371 590.208C66.1562 589.476 63.416 588.273 60.9271 586.648C57.8697 584.718 55.1473 582.303 52.8671 579.498C50.805 576.929 49.081 574.106 47.7371 571.098C46.9258 569.293 46.2082 567.447 45.5871 565.568C44.7771 563.178 44.1371 560.898 43.5271 558.768C42.7271 555.918 41.9771 553.338 41.1271 551.148C40.6821 549.978 40.161 548.839 39.5671 547.738C38.9537 546.605 38.2194 545.542 37.3771 544.568C36.2854 543.334 35.0225 542.263 33.6271 541.388C32.2019 540.428 30.6067 539.75 28.9271 539.388C27.5563 539.124 26.1479 539.124 24.7771 539.388C23.7543 539.597 22.7508 539.891 21.7771 540.268C20.3671 540.788 18.8771 541.468 17.2671 542.208C14.9595 543.33 12.5732 544.283 10.1271 545.058C8.52329 545.532 6.87432 545.837 5.20709 545.968C3.02935 546.134 0.838954 545.956 -1.2829 545.438C-4.16658 544.705 -6.90993 543.502 -9.40289 541.878C-12.4374 539.945 -15.1391 537.534 -17.4029 534.738C-19.4696 532.166 -21.1971 529.34 -22.5429 526.328C-23.3525 524.525 -24.0701 522.683 -24.6929 520.808C-25.5029 518.408 -26.1429 516.128 -26.7529 513.998C-27.5529 511.148 -28.3029 508.578 -29.1529 506.378C-29.5979 505.208 -30.119 504.069 -30.7129 502.968C-31.3253 501.835 -32.0596 500.772 -32.9029 499.798C-33.9938 498.559 -35.2607 497.488 -36.6629 496.618C-38.254 495.554 -39.4647 494.012 -40.1193 492.213C-40.7738 490.415 -40.8382 488.455 -40.3029 486.618" stroke="url(#paint25_linear_179_26)" stroke-width="0.5" stroke-miterlimit="10"/>
</g>
<g clip-path="url(#clip2_179_26)">
<path d="M1301.5 585.51L1263.65 596.83L1272.27 560.61L1310.13 549.29L1301.5 585.51Z" fill="#FFC84D"/>
<path d="M1310.13 549.29L1244 506L1272.27 560.61L1310.13 549.29Z" fill="#F1BD49"/>
<path opacity="0.53" d="M1310.13 549.29L1244 506L1272.27 560.61L1310.13 549.29Z" fill="url(#paint26_linear_179_26)"/>
<path d="M1244 506L1263.65 596.83L1272.27 560.61L1244 506Z" fill="#CE912E"/>
<g style="mix-blend-mode:overlay" opacity="0.62">
<path d="M1272.28 560.6C1269.74 556.15 1267.28 551.6 1264.87 547.13C1262.46 542.66 1260.09 538.06 1257.7 533.53C1255.31 529 1253.01 524.41 1250.7 519.82L1247.29 512.93C1246.18 510.62 1245.05 508.32 1243.97 506C1245.25 508.22 1246.47 510.47 1247.73 512.71L1251.38 519.47C1253.81 523.98 1256.16 528.54 1258.55 533.07C1260.94 537.6 1263.24 542.19 1265.55 546.78C1267.86 551.37 1270.1 555.96 1272.28 560.6Z" fill="url(#paint27_linear_179_26)"/>
</g>
</g>
<g clip-path="url(#clip3_179_26)">
<path d="M172.322 163.624L172.638 164.072C172.043 163.299 171.495 162.573 170.992 161.955L170.954 161.901L170.915 161.854C169.702 160.386 168.728 159.366 167.924 158.524C167.337 157.914 166.517 157.149 165.907 156.554L166.285 156.933C165.227 155.928 164.291 155.101 163.472 154.414H163.426H163.379C161.834 153.146 160.728 152.343 159.901 151.763C159.36 151.362 158.217 150.55 156.555 149.553C146.534 143.158 134.647 140.332 122.819 141.533C121.273 141.667 119.699 141.871 118.096 142.144H117.957L118.336 142.082L117.764 142.174L117.493 142.229L116.682 142.368L116.203 142.476L115.306 142.654L114.812 142.746C114.425 142.831 113.985 142.939 113.536 143.055L113.127 143.156L111.898 143.473L111.465 143.604L110.592 143.874L109.347 144.245C108.884 144.4 108.327 144.601 107.801 144.794L107.5 144.902L106.913 145.111L106.263 145.373L105.351 145.744L105.236 145.791L105.684 145.597L104.664 146.022C104.3 146.177 103.891 146.37 103.466 146.563H103.412L102.561 146.957L102.113 147.189C101.665 147.405 101.232 147.622 100.815 147.838L100.521 147.985L100.019 148.255L98.5733 149.028C97.9472 149.391 97.3289 149.801 96.7184 150.156H96.672C96.1078 150.512 95.3735 151.014 94.8171 151.385L92.9931 152.698C92.4366 153.116 91.7178 153.703 91.1691 154.135L89.376 155.681C89.1132 155.913 88.8195 156.183 88.5258 156.453L88.9741 156.028L88.263 156.693L88.1703 156.793L87.5288 157.396L85.728 159.243C85.1174 159.892 84.3445 160.788 83.7571 161.453L82.2114 163.4L82.3737 163.176C82.2732 163.315 82.1341 163.492 82.0259 163.624C81.7399 164.01 81.4076 164.466 81.083 164.93L81.0057 165.03L80.0241 166.421L78.2851 169.033C77.6282 170.161 76.8244 171.691 76.2138 172.834L75.3482 174.712L75.9433 173.39L74.7763 175.932C74.1425 177.478 73.3851 179.657 72.8286 181.264L71.8316 184.888C71.762 185.205 71.6925 185.545 71.6306 185.892C71.1681 187.932 70.8197 189.995 70.5872 192.074C70.5872 192.174 70.5872 192.275 70.5872 192.367V192.715C70.4713 193.928 70.3863 195.141 70.3477 196.362V196.439C70.3477 196.571 70.3477 196.679 70.3477 196.802C70.3477 197.428 70.3477 198.046 70.3477 198.672C70.3477 199.028 70.3477 199.36 70.3477 199.677C70.3477 199.994 70.3477 200.163 70.3477 200.403V200.488C70.4232 202.467 70.6063 204.44 70.8964 206.399C71.1051 207.79 71.3601 209.134 71.6693 210.425V210.664C71.6909 210.733 71.709 210.802 71.7234 210.873C72.8747 215.961 74.7322 220.864 77.2418 225.438V225.499L77.2881 225.569C77.9683 226.79 78.6639 227.933 79.3517 228.992L79.6145 229.432C79.9005 229.842 80.2096 230.282 80.542 230.738C81.1525 231.604 81.7631 232.407 82.3505 233.149C82.706 233.628 83.0538 234.084 83.3784 234.501L84.5455 235.799C85.2488 236.572 85.8826 237.283 86.4159 237.862C88.7306 240.314 91.3038 242.508 94.0906 244.407L94.4461 244.685L95.5822 245.458C96.8575 246.292 98.2487 247.157 99.7944 248.023C102.714 249.655 105.793 250.983 108.984 251.987L110.012 252.357L111.867 252.86C112.586 253.084 113.304 253.285 114.031 253.455C116.535 253.98 118.552 254.351 120.569 254.591H120.693H120.848C121.914 254.714 122.989 254.807 124.14 254.853H124.519C125.075 254.853 125.701 254.853 126.343 254.853C127.286 254.853 128.291 254.853 129.434 254.853C131.767 254.781 134.091 254.546 136.39 254.15H136.529H136.707C138.625 253.83 140.524 253.407 142.396 252.883L144.946 252.11C145.719 251.863 146.654 251.5 147.388 251.245L149.638 250.333C150.287 250.055 151.137 249.653 151.778 249.36L152.598 248.942L153.579 248.455L153.819 248.332L154.344 248.046L155.666 247.273L155.767 247.219H155.828C156.408 246.879 156.988 246.532 157.567 246.161L157.668 246.099L157.768 246.037C158.17 245.782 158.541 245.512 158.966 245.264L159.523 244.893L159.708 244.762L160.396 244.26L161.347 243.58C161.903 243.163 162.622 242.575 163.171 242.143L164.964 240.597C165.543 240.087 166.278 239.369 166.842 238.843L168.643 237.004C171.451 234.04 173.916 230.769 175.993 227.253V227.215C176.019 227.178 176.042 227.139 176.062 227.099C176.696 226.027 177.32 224.884 177.933 223.668C177.981 223.586 178.025 223.501 178.064 223.413L178.219 223.081C178.628 222.254 178.992 221.404 179.401 220.516L179.486 220.33C179.533 220.222 179.579 220.098 179.625 219.975C180.228 218.522 180.792 216.992 181.302 215.385C181.349 215.254 181.395 215.13 181.434 215.007L181.55 214.582C181.867 213.546 182.168 212.488 182.431 211.383C185.029 200.641 184.414 189.372 180.661 178.977L180.476 178.498C180.275 177.949 180.066 177.424 179.857 176.906C179.757 176.667 179.656 176.412 179.548 176.133L179.332 175.569L179.108 175.106C178.667 174.094 178.165 173.05 177.6 171.961C177.523 171.806 177.454 171.652 177.376 171.49L177.569 171.891C177.415 171.606 177.268 171.312 177.106 171.018C177.059 170.918 177.005 170.825 176.959 170.717L176.758 170.392C176.109 169.218 175.39 168.013 174.586 166.784C174.323 166.39 174.014 165.95 173.697 165.509C173.38 165.069 173.04 164.59 172.731 164.172L172.322 163.624Z" fill="#E4956F"/>
<path d="M165.266 211.916C146.083 232.407 115.909 245.697 96.8502 242.305L94.0987 241.664C90.8093 240.832 87.8152 239.104 85.4502 236.672L86.4936 237.769C87.7534 239.029 89.531 240.605 90.8526 241.787C93.2872 243.742 94.8253 244.268 97.8936 245.326C97.8936 245.326 99.3389 245.697 100.212 245.867H100.282C100.49 245.867 100.66 245.937 100.761 245.944C119.403 249.151 148.78 236.178 167.484 216.204C179.479 203.393 184.255 190.706 181.689 181.936C181.125 180.12 180.26 177.849 179.502 175.932C182.74 184.98 177.949 198.394 165.266 211.916Z" fill="#EFF4F2"/>
<path d="M111.141 252.365C112.623 252.911 114.141 253.352 115.685 253.686C131.011 256.607 155.519 245.867 171.062 229.27C177.74 222.138 181.705 215.053 182.918 208.98C183.25 207.141 183.536 204.784 183.745 202.721C182.849 209.59 178.497 217.803 170.738 226.087C154.012 243.982 127.634 255.502 111.141 252.365Z" fill="#EFF4F2"/>
<path d="M183.892 201.222C183.892 201.717 183.815 202.219 183.745 202.721C183.799 202.203 183.853 201.693 183.892 201.222Z" fill="#EFF4F2"/>
<path d="M107.717 251.438L111.473 252.659C110.7 252.427 109.881 252.164 109.093 251.886C108.621 251.747 108.157 251.6 107.717 251.438Z" fill="#EFF4F2"/>
<path d="M138.438 253.733L139.474 253.516C141.32 253.11 143.144 252.609 144.938 252.017C146.577 251.477 146.693 251.43 149.622 250.24C151.06 249.622 151.114 249.599 153.796 248.247L154.267 247.992C157.054 246.48 159.709 244.738 162.205 242.784C163.039 242.12 164.121 241.192 164.933 240.505C166.224 239.353 166.224 239.353 168.612 236.912C169.926 235.519 171.165 234.057 172.322 232.531L173.094 231.503C166.703 240.01 154.538 250.009 138.438 253.733Z" fill="#EFF4F2"/>
<path d="M92.553 167.881C92.7616 167.92 92.9394 167.935 93.1094 167.951C97.8472 168.422 104.888 165.2 109.44 160.34C114.333 155.124 114.487 149.994 109.796 148.889C105.105 147.784 97.3371 151.13 92.4448 156.345C87.7534 161.36 87.4288 166.266 91.5559 167.634H91.61L91.8033 167.696L92.3906 167.835L92.553 167.881ZM95.6831 156.368C98.3805 153.494 102.639 151.655 105.244 152.258C107.848 152.86 107.748 155.696 105.05 158.571C102.585 161.205 98.7824 162.967 96.17 162.782H95.9073C95.6669 162.743 95.4293 162.689 95.1962 162.619C92.9471 161.808 93.1326 159.119 95.7063 156.368H95.6831Z" fill="#EFF4F2"/>
<path d="M100.08 148.17L100.853 147.761L100.505 147.931L100.08 148.17Z" fill="#EFF4F2"/>
<path d="M102.276 147.011L100.877 147.722C101.341 147.475 101.828 147.243 102.276 147.011Z" fill="#EFF4F2"/>
<path d="M86.2846 188.705C97.8778 189.926 115.105 182.044 126.25 170.161C138.168 157.435 138.555 144.941 127.108 142.244C123.401 141.514 119.582 141.577 115.901 142.429L114.85 142.653C113.007 143.061 111.186 143.561 109.394 144.152C107.755 144.693 107.639 144.74 104.702 145.922C103.682 146.37 103.358 146.509 102.275 147.042C109.486 143.558 116.837 141.981 122.231 143.248C131.954 145.566 131.622 156.152 121.458 166.962C111.55 177.547 95.9533 184.393 86.1532 182.531L84.932 182.261C84.9354 182.245 84.9354 182.23 84.932 182.214C75.8275 179.641 76.353 169.241 86.2614 158.656C87.3975 157.45 88.58 156.291 89.8707 155.194L89.3529 155.634C88.0699 156.786 88.0699 156.786 85.674 159.227C84.3598 160.62 83.1214 162.083 81.9642 163.608L80.4184 165.733C76.9404 170.98 70.255 183.667 83.2085 188.141C84.2076 188.451 85.2403 188.64 86.2846 188.705Z" fill="#EFF4F2"/>
<path d="M89.9092 155.194C90.628 154.584 91.4549 153.888 92.1119 153.355C91.3622 153.95 90.628 154.56 89.9092 155.194Z" fill="#EFF4F2"/>
<path d="M164.323 155.124C164.044 154.862 163.759 154.604 163.465 154.352L164.323 155.124Z" fill="#EFF4F2"/>
<path d="M81.346 209.799C82.2415 210.068 83.1561 210.269 84.0819 210.401C100.614 213.106 126.49 201.632 142.991 184.015C159.221 166.699 160.535 149.677 146.608 144.693C144.714 144.052 142.149 143.326 140.216 142.793L139.621 142.661C154.855 146.246 154.306 162.89 138.462 179.842C123.058 196.292 98.8517 206.978 83.5023 204.32C82.8994 204.181 81.5933 203.888 80.689 203.648C69.5054 200.078 70.9352 190.374 71.4144 187.152C71.0357 189.47 70.6415 192.56 70.4329 194.878C70.0078 202.087 73.6326 207.597 81.346 209.776V209.799Z" fill="#EFF4F2"/>
<path d="M85.2803 229.749C86.4374 230.148 87.627 230.445 88.8355 230.638C107.872 234.269 138.3 220.933 157.622 200.318C172.902 183.999 176.728 167.912 168.867 159.428L167.924 158.431C166.904 157.388 165.529 156.113 164.323 155.078C172.74 163.207 169.184 179.301 153.897 195.636C135.015 215.795 105.252 228.86 86.656 225.283C85.6358 225.082 84.6465 224.827 84.3374 224.75C78.4635 223.089 74.6995 219.712 73.0146 215.192C73.6793 217.131 74.5604 219.38 75.2251 221.126C76.9486 225.036 80.3029 228.026 85.2725 229.71L85.2803 229.749Z" fill="#EFF4F2"/>
<path style="mix-blend-mode:color-dodge" opacity="0.49" d="M177.46 223.715C191.738 195.628 180.652 161.346 152.698 147.144C124.744 132.941 90.509 144.197 76.2312 172.284C61.9534 200.371 73.0399 234.653 100.994 248.855C128.947 263.058 163.183 251.802 177.46 223.715Z" fill="url(#paint28_radial_179_26)"/>
<g style="mix-blend-mode:overlay" opacity="0.49">
<path d="M167.19 206.543C177.542 184.71 168.229 158.621 146.39 148.272C124.55 137.924 98.4546 147.234 88.1032 169.068C77.7518 190.901 87.0646 216.99 108.904 227.338C130.743 237.687 156.839 228.376 167.19 206.543Z" fill="url(#paint29_linear_179_26)"/>
</g>
</g>
<g clip-path="url(#clip4_179_26)">
<path d="M1006.38 158L1060.55 170.03L1025.17 208.55L971 196.52L1006.38 158Z" fill="#FFC84D"/>
<path d="M971 196.52L1022.47 294.87L1025.17 208.55L971 196.52Z" fill="#F1BD49"/>
<path opacity="0.53" d="M971 196.52L1022.47 294.87L1025.17 208.55L971 196.52Z" fill="url(#paint30_linear_179_26)"/>
<path d="M1022.47 294.87L1060.55 170.03L1025.17 208.55L1022.47 294.87Z" fill="#CE912E"/>
<g style="mix-blend-mode:overlay" opacity="0.62">
<path d="M1025.19 208.55C1025.19 212.15 1025.19 215.75 1025.19 219.35L1025.05 230.14C1024.94 237.34 1024.71 244.54 1024.54 251.73C1024.37 258.92 1024.04 266.12 1023.71 273.31L1023.19 284.09C1022.96 287.69 1022.78 291.28 1022.51 294.87C1022.46 291.27 1022.51 287.67 1022.51 284.07L1022.65 273.27C1022.77 266.08 1023 258.88 1023.17 251.69C1023.34 244.5 1023.66 237.3 1024.01 230.11L1024.54 219.33C1024.72 215.73 1024.9 212.14 1025.19 208.55Z" fill="url(#paint31_linear_179_26)"/>
</g>
</g>
</g>
<defs>
<radialGradient id="paint0_radial_179_26" cx="0" cy="0" r="1" gradientUnits="userSpaceOnUse" gradientTransform="translate(1188.69 358.093) rotate(-2.75) scale(38.9821)">
<stop offset="0.31" stop-color="#FFEE57"/>
<stop offset="0.38" stop-color="#FDE34E"/>
<stop offset="0.51" stop-color="#F8C635"/>
<stop offset="0.68" stop-color="#F0960E"/>
<stop offset="0.73" stop-color="#ED8600"/>
<stop offset="0.89" stop-color="#E86C00"/>
<stop offset="0.93" stop-color="#E86E01"/>
<stop offset="0.94" stop-color="#EA7607"/>
<stop offset="0.96" stop-color="#EC830F"/>
<stop offset="0.97" stop-color="#EF951C"/>
<stop offset="0.98" stop-color="#F4AD2C"/>
<stop offset="0.99" stop-color="#F9CA3F"/>
<stop offset="1" stop-color="#FFEE57"/>
</radialGradient>
<linearGradient id="paint1_linear_179_26" x1="1216.3" y1="340.248" x2="1209.71" y2="353.51" gradientUnits="userSpaceOnUse">
<stop stop-color="#FFF6AB"/>
<stop offset="0.99" stop-color="#FFF6AB" stop-opacity="0"/>
</linearGradient>
<linearGradient id="paint2_linear_179_26" x1="1111.29" y1="409.024" x2="1100.13" y2="399.819" gradientUnits="userSpaceOnUse">
<stop offset="0.31" stop-color="#F1FAFF"/>
<stop offset="0.39" stop-color="#E7EFF4"/>
<stop offset="0.53" stop-color="#CED3D7"/>
<stop offset="0.72" stop-color="#A3A4A6"/>
<stop offset="0.89" stop-color="#9D9D9F"/>
<stop offset="0.93" stop-color="#9F9FA1"/>
<stop offset="0.95" stop-color="#A6A6A9"/>
<stop offset="0.96" stop-color="#B1B3B6"/>
<stop offset="0.98" stop-color="#C1C5C8"/>
<stop offset="0.99" stop-color="#D6DCE0"/>
<stop offset="1" stop-color="#F1FAFF"/>
</linearGradient>
<radialGradient id="paint3_radial_179_26" cx="0" cy="0" r="1" gradientUnits="userSpaceOnUse" gradientTransform="translate(1108.3 293.026) scale(35.5846)">
<stop offset="0.31" stop-color="#B8DAFD"/>
<stop offset="0.36" stop-color="#ADD2FB"/>
<stop offset="0.47" stop-color="#90BDF5"/>
<stop offset="0.6" stop-color="#609AED"/>
<stop offset="0.73" stop-color="#2D75E3"/>
<stop offset="0.88" stop-color="#013AAB"/>
<stop offset="0.92" stop-color="#033CAC"/>
<stop offset="0.94" stop-color="#0B43AF"/>
<stop offset="0.95" stop-color="#184EB5"/>
<stop offset="0.96" stop-color="#2A5EBD"/>
<stop offset="0.97" stop-color="#4273C8"/>
<stop offset="0.98" stop-color="#608DD6"/>
<stop offset="0.99" stop-color="#83ACE5"/>
<stop offset="1" stop-color="#B8DAFD"/>
</radialGradient>
<linearGradient id="paint4_linear_179_26" x1="1134.27" y1="277.947" x2="1127.68" y2="289.749" gradientUnits="userSpaceOnUse">
<stop stop-color="#B8DAFD"/>
<stop offset="0.99" stop-color="#B8DAFD" stop-opacity="0"/>
</linearGradient>
<radialGradient id="paint5_radial_179_26" cx="0" cy="0" r="1" gradientUnits="userSpaceOnUse" gradientTransform="translate(1072.93 416.735) scale(35.5846)">
<stop offset="0.31" stop-color="#B8DAFD"/>
<stop offset="0.36" stop-color="#ADD2FB"/>
<stop offset="0.47" stop-color="#90BDF5"/>
<stop offset="0.6" stop-color="#609AED"/>
<stop offset="0.73" stop-color="#2D75E3"/>
<stop offset="0.88" stop-color="#013AAB"/>
<stop offset="0.92" stop-color="#033CAC"/>
<stop offset="0.94" stop-color="#0B43AF"/>
<stop offset="0.95" stop-color="#184EB5"/>
<stop offset="0.96" stop-color="#2A5EBD"/>
<stop offset="0.97" stop-color="#4273C8"/>
<stop offset="0.98" stop-color="#608DD6"/>
<stop offset="0.99" stop-color="#83ACE5"/>
<stop offset="1" stop-color="#B8DAFD"/>
</radialGradient>
<linearGradient id="paint6_linear_179_26" x1="1098.9" y1="401.662" x2="1092.29" y2="413.465" gradientUnits="userSpaceOnUse">
<stop stop-color="#B8DAFD"/>
<stop offset="0.99" stop-color="#B8DAFD" stop-opacity="0"/>
</linearGradient>
<linearGradient id="paint7_linear_179_26" x1="1100.21" y1="320.967" x2="1088.92" y2="311.855" gradientUnits="userSpaceOnUse">
<stop offset="0.31" stop-color="#F1FAFF"/>
<stop offset="0.39" stop-color="#E7EFF4"/>
<stop offset="0.53" stop-color="#CED3D7"/>
<stop offset="0.72" stop-color="#A3A4A6"/>
<stop offset="0.89" stop-color="#9D9D9F"/>
<stop offset="0.93" stop-color="#9F9FA1"/>
<stop offset="0.95" stop-color="#A6A6A9"/>
<stop offset="0.96" stop-color="#B1B3B6"/>
<stop offset="0.98" stop-color="#C1C5C8"/>
<stop offset="0.99" stop-color="#D6DCE0"/>
<stop offset="1" stop-color="#F1FAFF"/>
</linearGradient>
<linearGradient id="paint8_linear_179_26" x1="1160.57" y1="379.354" x2="1159.02" y2="364.96" gradientUnits="userSpaceOnUse">
<stop offset="0.31" stop-color="#F1FAFF"/>
<stop offset="0.39" stop-color="#E7EFF4"/>
<stop offset="0.53" stop-color="#CED3D7"/>
<stop offset="0.72" stop-color="#A3A4A6"/>
<stop offset="0.89" stop-color="#9D9D9F"/>
<stop offset="0.93" stop-color="#9F9FA1"/>
<stop offset="0.95" stop-color="#A6A6A9"/>
<stop offset="0.96" stop-color="#B1B3B6"/>
<stop offset="0.98" stop-color="#C1C5C8"/>
<stop offset="0.99" stop-color="#D6DCE0"/>
<stop offset="1" stop-color="#F1FAFF"/>
</linearGradient>
<linearGradient id="paint9_linear_179_26" x1="1222.17" y1="398.073" x2="1208.14" y2="401.545" gradientUnits="userSpaceOnUse">
<stop offset="0.31" stop-color="#F1FAFF"/>
<stop offset="0.39" stop-color="#E7EFF4"/>
<stop offset="0.53" stop-color="#CED3D7"/>
<stop offset="0.72" stop-color="#A3A4A6"/>
<stop offset="0.89" stop-color="#9D9D9F"/>
<stop offset="0.93" stop-color="#9F9FA1"/>
<stop offset="0.95" stop-color="#A6A6A9"/>
<stop offset="0.96" stop-color="#B1B3B6"/>
<stop offset="0.98" stop-color="#C1C5C8"/>
<stop offset="0.99" stop-color="#D6DCE0"/>
<stop offset="1" stop-color="#F1FAFF"/>
</linearGradient>
<radialGradient id="paint10_radial_179_26" cx="0" cy="0" r="1" gradientUnits="userSpaceOnUse" gradientTransform="translate(1066.81 340.001) scale(46.0432)">
<stop offset="0.31" stop-color="#B8DAFD"/>
<stop offset="0.36" stop-color="#ADD2FB"/>
<stop offset="0.47" stop-color="#90BDF5"/>
<stop offset="0.6" stop-color="#609AED"/>
<stop offset="0.73" stop-color="#2D75E3"/>
<stop offset="0.88" stop-color="#013AAB"/>
<stop offset="0.92" stop-color="#033CAC"/>
<stop offset="0.94" stop-color="#0B43AF"/>
<stop offset="0.95" stop-color="#184EB5"/>
<stop offset="0.96" stop-color="#2A5EBD"/>
<stop offset="0.97" stop-color="#4273C8"/>
<stop offset="0.98" stop-color="#608DD6"/>
<stop offset="0.99" stop-color="#83ACE5"/>
<stop offset="1" stop-color="#B8DAFD"/>
</radialGradient>
<linearGradient id="paint11_linear_179_26" x1="1100.42" y1="320.491" x2="1091.88" y2="335.767" gradientUnits="userSpaceOnUse">
<stop stop-color="#B8DAFD"/>
<stop offset="0.99" stop-color="#B8DAFD" stop-opacity="0"/>
</linearGradient>
<radialGradient id="paint12_radial_179_26" cx="0" cy="0" r="1" gradientUnits="userSpaceOnUse" gradientTransform="translate(1126.45 372.961) scale(34.1648 34.1648)">
<stop offset="0.31" stop-color="#FFEE57"/>
<stop offset="0.38" stop-color="#FDE34E"/>
<stop offset="0.51" stop-color="#F8C635"/>
<stop offset="0.68" stop-color="#F0960E"/>
<stop offset="0.73" stop-color="#ED8600"/>
<stop offset="0.89" stop-color="#E86C00"/>
<stop offset="0.93" stop-color="#E86E01"/>
<stop offset="0.94" stop-color="#EA7607"/>
<stop offset="0.96" stop-color="#EC830F"/>
<stop offset="0.97" stop-color="#EF951C"/>
<stop offset="0.98" stop-color="#F4AD2C"/>
<stop offset="0.99" stop-color="#F9CA3F"/>
<stop offset="1" stop-color="#FFEE57"/>
</radialGradient>
<linearGradient id="paint13_linear_179_26" x1="1151.37" y1="358.484" x2="1145.04" y2="369.817" gradientUnits="userSpaceOnUse">
<stop stop-color="#FFF6AB"/>
<stop offset="0.99" stop-color="#FFF6AB" stop-opacity="0"/>
</linearGradient>
<linearGradient id="paint14_linear_179_26" x1="1084.22" y1="382.03" x2="1069.76" y2="382.04" gradientUnits="userSpaceOnUse">
<stop offset="0.31" stop-color="#F1FAFF"/>
<stop offset="0.39" stop-color="#E7EFF4"/>
<stop offset="0.53" stop-color="#CED3D7"/>
<stop offset="0.72" stop-color="#A3A4A6"/>
<stop offset="0.89" stop-color="#9D9D9F"/>
<stop offset="0.93" stop-color="#9F9FA1"/>
<stop offset="0.95" stop-color="#A6A6A9"/>
<stop offset="0.96" stop-color="#B1B3B6"/>
<stop offset="0.98" stop-color="#C1C5C8"/>
<stop offset="0.99" stop-color="#D6DCE0"/>
<stop offset="1" stop-color="#F1FAFF"/>
</linearGradient>
<radialGradient id="paint15_radial_179_26" cx="0" cy="0" r="1" gradientUnits="userSpaceOnUse" gradientTransform="translate(1072.15 399.026) scale(34.1648 34.1648)">
<stop offset="0.31" stop-color="#FFEE57"/>
<stop offset="0.38" stop-color="#FDE34E"/>
<stop offset="0.51" stop-color="#F8C635"/>
<stop offset="0.68" stop-color="#F0960E"/>
<stop offset="0.73" stop-color="#ED8600"/>
<stop offset="0.89" stop-color="#E86C00"/>
<stop offset="0.93" stop-color="#E86E01"/>
<stop offset="0.94" stop-color="#EA7607"/>
<stop offset="0.96" stop-color="#EC830F"/>
<stop offset="0.97" stop-color="#EF951C"/>
<stop offset="0.98" stop-color="#F4AD2C"/>
<stop offset="0.99" stop-color="#F9CA3F"/>
<stop offset="1" stop-color="#FFEE57"/>
</radialGradient>
<linearGradient id="paint16_linear_179_26" x1="1097.07" y1="384.548" x2="1090.75" y2="395.882" gradientUnits="userSpaceOnUse">
<stop stop-color="#FFF6AB"/>
<stop offset="0.99" stop-color="#FFF6AB" stop-opacity="0"/>
</linearGradient>
<linearGradient id="paint17_linear_179_26" x1="1109.92" y1="451.31" x2="1118.17" y2="439.439" gradientUnits="userSpaceOnUse">
<stop offset="0.31" stop-color="#F1FAFF"/>
<stop offset="0.39" stop-color="#E7EFF4"/>
<stop offset="0.53" stop-color="#CED3D7"/>
<stop offset="0.72" stop-color="#A3A4A6"/>
<stop offset="0.89" stop-color="#9D9D9F"/>
<stop offset="0.93" stop-color="#9F9FA1"/>
<stop offset="0.95" stop-color="#A6A6A9"/>
<stop offset="0.96" stop-color="#B1B3B6"/>
<stop offset="0.98" stop-color="#C1C5C8"/>
<stop offset="0.99" stop-color="#D6DCE0"/>
<stop offset="1" stop-color="#F1FAFF"/>
</linearGradient>
<linearGradient id="paint18_linear_179_26" x1="1123.7" y1="413.82" x2="1137.9" y2="416.582" gradientUnits="userSpaceOnUse">
<stop offset="0.31" stop-color="#F1FAFF"/>
<stop offset="0.39" stop-color="#E7EFF4"/>
<stop offset="0.53" stop-color="#CED3D7"/>
<stop offset="0.72" stop-color="#A3A4A6"/>
<stop offset="0.89" stop-color="#9D9D9F"/>
<stop offset="0.93" stop-color="#9F9FA1"/>
<stop offset="0.95" stop-color="#A6A6A9"/>
<stop offset="0.96" stop-color="#B1B3B6"/>
<stop offset="0.98" stop-color="#C1C5C8"/>
<stop offset="0.99" stop-color="#D6DCE0"/>
<stop offset="1" stop-color="#F1FAFF"/>
</linearGradient>
<radialGradient id="paint19_radial_179_26" cx="0" cy="0" r="1" gradientUnits="userSpaceOnUse" gradientTransform="translate(1116.01 440.2) scale(35.5846)">
<stop offset="0.31" stop-color="#B8DAFD"/>
<stop offset="0.36" stop-color="#ADD2FB"/>
<stop offset="0.47" stop-color="#90BDF5"/>
<stop offset="0.6" stop-color="#609AED"/>
<stop offset="0.73" stop-color="#2D75E3"/>
<stop offset="0.88" stop-color="#013AAB"/>
<stop offset="0.92" stop-color="#033CAC"/>
<stop offset="0.94" stop-color="#0B43AF"/>
<stop offset="0.95" stop-color="#184EB5"/>
<stop offset="0.96" stop-color="#2A5EBD"/>
<stop offset="0.97" stop-color="#4273C8"/>
<stop offset="0.98" stop-color="#608DD6"/>
<stop offset="0.99" stop-color="#83ACE5"/>
<stop offset="1" stop-color="#B8DAFD"/>
</radialGradient>
<linearGradient id="paint20_linear_179_26" x1="1141.96" y1="425.115" x2="1135.37" y2="436.917" gradientUnits="userSpaceOnUse">
<stop stop-color="#B8DAFD"/>
<stop offset="0.99" stop-color="#B8DAFD" stop-opacity="0"/>
</linearGradient>
<radialGradient id="paint21_radial_179_26" cx="0" cy="0" r="1" gradientUnits="userSpaceOnUse" gradientTransform="translate(1204.23 417.962) scale(40.8203)">
<stop offset="0.31" stop-color="#B8DAFD"/>
<stop offset="0.36" stop-color="#ADD2FB"/>
<stop offset="0.47" stop-color="#90BDF5"/>
<stop offset="0.6" stop-color="#609AED"/>
<stop offset="0.73" stop-color="#2D75E3"/>
<stop offset="0.88" stop-color="#013AAB"/>
<stop offset="0.92" stop-color="#033CAC"/>
<stop offset="0.94" stop-color="#0B43AF"/>
<stop offset="0.95" stop-color="#184EB5"/>
<stop offset="0.96" stop-color="#2A5EBD"/>
<stop offset="0.97" stop-color="#4273C8"/>
<stop offset="0.98" stop-color="#608DD6"/>
<stop offset="0.99" stop-color="#83ACE5"/>
<stop offset="1" stop-color="#B8DAFD"/>
</radialGradient>
<linearGradient id="paint22_linear_179_26" x1="1234.01" y1="400.661" x2="1226.44" y2="414.2" gradientUnits="userSpaceOnUse">
<stop stop-color="#B8DAFD"/>
<stop offset="0.99" stop-color="#B8DAFD" stop-opacity="0"/>
</linearGradient>
<radialGradient id="paint23_radial_179_26" cx="0" cy="0" r="1" gradientUnits="userSpaceOnUse" gradientTransform="translate(1140.8 486.169) scale(113.418 8.32429)">
<stop/>
<stop offset="0.35" stop-color="#656565"/>
<stop offset="0.67" stop-color="#B8B8B8"/>
<stop offset="0.89" stop-color="#EBEBEB"/>
<stop offset="1" stop-color="white"/>
</radialGradient>
<linearGradient id="paint24_linear_179_26" x1="-69" y1="467.34" x2="92.616" y2="583.766" gradientUnits="userSpaceOnUse">
<stop offset="0.37" stop-color="white"/>
<stop offset="0.41" stop-color="white" stop-opacity="0.8"/>
<stop offset="0.46" stop-color="white" stop-opacity="0.59"/>
<stop offset="0.5" stop-color="white" stop-opacity="0.41"/>
<stop offset="0.55" stop-color="white" stop-opacity="0.26"/>
<stop offset="0.59" stop-color="white" stop-opacity="0.15"/>
<stop offset="0.64" stop-color="white" stop-opacity="0.07"/>
<stop offset="0.68" stop-color="white" stop-opacity="0.02"/>
<stop offset="0.72" stop-color="white" stop-opacity="0"/>
</linearGradient>
<linearGradient id="paint25_linear_179_26" x1="-48.7201" y1="506.503" x2="183.538" y2="633.189" gradientUnits="userSpaceOnUse">
<stop stop-color="white"/>
<stop offset="1" stop-color="#E8B4C5" stop-opacity="0"/>
</linearGradient>
<linearGradient id="paint26_linear_179_26" x1="1328.94" y1="622.791" x2="1245.83" y2="473.254" gradientUnits="userSpaceOnUse">
<stop offset="0.37" stop-color="white"/>
<stop offset="0.41" stop-color="white" stop-opacity="0.8"/>
<stop offset="0.46" stop-color="white" stop-opacity="0.59"/>
<stop offset="0.5" stop-color="white" stop-opacity="0.41"/>
<stop offset="0.55" stop-color="white" stop-opacity="0.26"/>
<stop offset="0.59" stop-color="white" stop-opacity="0.15"/>
<stop offset="0.64" stop-color="white" stop-opacity="0.07"/>
<stop offset="0.68" stop-color="white" stop-opacity="0.02"/>
<stop offset="0.72" stop-color="white" stop-opacity="0"/>
</linearGradient>
<linearGradient id="paint27_linear_179_26" x1="1271.51" y1="532.71" x2="1244.77" y2="533.88" gradientUnits="userSpaceOnUse">
<stop stop-color="white"/>
<stop offset="1" stop-color="#E8B4C5" stop-opacity="0"/>
</linearGradient>
<radialGradient id="paint28_radial_179_26" cx="0" cy="0" r="1" gradientUnits="userSpaceOnUse" gradientTransform="translate(124.762 194.875) rotate(-108.471) scale(56.9025 56.9205)">
<stop offset="0.84" stop-color="white" stop-opacity="0"/>
<stop offset="0.9" stop-color="#FEFFFF" stop-opacity="0.01"/>
<stop offset="0.92" stop-color="#F9FEFF" stop-opacity="0.03"/>
<stop offset="0.94" stop-color="#F1FCFF" stop-opacity="0.08"/>
<stop offset="0.95" stop-color="#E6FAFF" stop-opacity="0.15"/>
<stop offset="0.96" stop-color="#D7F6FF" stop-opacity="0.23"/>
<stop offset="0.97" stop-color="#C5F2FF" stop-opacity="0.34"/>
<stop offset="0.98" stop-color="#96E8FF" stop-opacity="0.61"/>
<stop offset="0.99" stop-color="#7AE2FF" stop-opacity="0.78"/>
<stop offset="1" stop-color="#55DAFF"/>
</radialGradient>
<linearGradient id="paint29_linear_179_26" x1="100.344" y1="101.021" x2="146.766" y2="249.166" gradientUnits="userSpaceOnUse">
<stop offset="0.37" stop-color="white"/>
<stop offset="0.41" stop-color="white" stop-opacity="0.8"/>
<stop offset="0.46" stop-color="white" stop-opacity="0.59"/>
<stop offset="0.5" stop-color="white" stop-opacity="0.41"/>
<stop offset="0.55" stop-color="white" stop-opacity="0.26"/>
<stop offset="0.59" stop-color="white" stop-opacity="0.15"/>
<stop offset="0.64" stop-color="white" stop-opacity="0.07"/>
<stop offset="0.68" stop-color="white" stop-opacity="0.02"/>
<stop offset="0.72" stop-color="white" stop-opacity="0"/>
</linearGradient>
<linearGradient id="paint30_linear_179_26" x1="997.546" y1="92.7037" x2="996.467" y2="332.326" gradientUnits="userSpaceOnUse">
<stop offset="0.37" stop-color="white"/>
<stop offset="0.41" stop-color="white" stop-opacity="0.8"/>
<stop offset="0.46" stop-color="white" stop-opacity="0.59"/>
<stop offset="0.5" stop-color="white" stop-opacity="0.41"/>
<stop offset="0.55" stop-color="white" stop-opacity="0.26"/>
<stop offset="0.59" stop-color="white" stop-opacity="0.15"/>
<stop offset="0.64" stop-color="white" stop-opacity="0.07"/>
<stop offset="0.68" stop-color="white" stop-opacity="0.02"/>
<stop offset="0.72" stop-color="white" stop-opacity="0"/>
</linearGradient>
<linearGradient id="paint31_linear_179_26" x1="1007.02" y1="243.27" x2="1040.62" y2="260.15" gradientUnits="userSpaceOnUse">
<stop stop-color="white"/>
<stop offset="1" stop-color="#E8B4C5" stop-opacity="0"/>
</linearGradient>
<clipPath id="clip0_179_26">
<rect width="1440" height="729" fill="white"/>
</clipPath>
<clipPath id="clip1_179_26">
<rect width="237.7" height="158.54" fill="white" transform="translate(-55 483)"/>
</clipPath>
<clipPath id="clip2_179_26">
<rect width="66.13" height="90.83" fill="white" transform="translate(1244 506)"/>
</clipPath>
<clipPath id="clip3_179_26">
<rect width="114" height="114" fill="white" transform="translate(70 141)"/>
</clipPath>
<clipPath id="clip4_179_26">
<rect width="89.55" height="136.87" fill="white" transform="translate(971 158)"/>
</clipPath>
</defs>
</svg>
